# xmcd
#
# Track frame offsets:
# 150
# 11032
# 21912
# 35165
# 47212
# 61070
# 74142
# 87755
# 102260
# 111582
#
# Disc length: 1663 seconds
#
#
# Revision: 6
# Processed by: cddbd v1.5.2PL0 Copyright (c) Steve Scherf et al.
# Submitted via: FreeRIP 2.945 
#
DISCID=8e067d0a
DTITLE=George Strait - George Strait - Greatest Hits Vol. 1
DYEAR=1983
DGENRE=Country
TTITLE0=Unwound
TTITLE1=Down and Out
TTITLE2=If You're Thinking You Want A Stranger
TTITLE3=Fool Hearted Memory
TTITLE4=Marina Del Rey
TTITLE5=Amarillo By Morning
TTITLE6=A Fire I Can't Put Out
TTITLE7=You Look So Good In Love
TTITLE8=Right Or Wrong
TTITLE9=George Strait - Let's Fall To Pieces Together
EXTD=
EXTT0=
EXTT1=
EXTT2=
EXTT3=
EXTT4=
EXTT5=
EXTT6=
EXTT7=
EXTT8=
EXTT9=
PLAYORDER=
